<?xml version="1.0" encoding="UTF-8"?>
<svg id="katman_2" data-name="katman 2" xmlns="http://www.w3.org/2000/svg" viewBox="0 0 84.39 128.5">
  <defs>
    <style>
      .cls-1 {
        fill: #1c3c6e;
      }

      .cls-1, .cls-2 {
        stroke-width: 0px;
      }

      .cls-2 {
        fill: #fff;
      }
    </style>
  </defs>
  <g id="katman_1" data-name="katman 1">
    <g>
      <polygon class="cls-1" points="84.35 99.73 42.38 128.5 .04 99.73 .04 20.48 84.35 20.48 84.35 99.73"/>
      <g>
        <path class="cls-2" d="M7.96,28.37h5.82c3.68,0,5.49,1.87,5.49,5.32v10.88c0,3.44-1.81,5.32-5.49,5.32h-5.82v-21.52ZM11.64,31.44v15.37h2.07c1.17,0,1.87-.55,1.87-2.09v-11.19c0-1.54-.7-2.09-1.87-2.09h-2.07Z"/>
        <path class="cls-2" d="M29.31,49.88c-.2-.55-.33-.89-.33-2.64v-3.38c0-2-.74-2.74-2.41-2.74h-1.27v8.76h-3.68v-21.52h5.55c3.81,0,5.45,1.63,5.45,4.95v1.69c0,2.21-.77,3.63-2.41,4.33v.06c1.84.71,2.44,2.31,2.44,4.55v3.32c0,1.04.03,1.81.4,2.61h-3.75ZM25.3,31.44v6.61h1.44c1.37,0,2.21-.55,2.21-2.27v-2.12c0-1.54-.57-2.21-1.87-2.21h-1.77Z"/>
        <path class="cls-2" d="M38.75,37.44h5.05v3.07h-5.05v6.3h6.36v3.07h-10.04v-21.52h10.04v3.07h-6.36v5.99Z"/>
        <path class="cls-2" d="M59.29,49.88h-3.71l-.64-3.9h-4.52l-.64,3.9h-3.38l3.75-21.52h5.39l3.75,21.52ZM50.9,43.06h3.55l-1.74-10.88h-.07l-1.74,10.88Z"/>
        <path class="cls-2" d="M68.76,43.64h.07l2.48-15.28h5.12v21.52h-3.48v-15.43h-.07l-2.48,15.43h-3.48l-2.68-15.21h-.07v15.21h-3.21v-21.52h5.12l2.68,15.28Z"/>
      </g>
      <polygon class="cls-1" points="59.08 17.65 70.07 17.65 84.39 17.65 84.39 9.42 84.39 4.2 70.07 4.2 70.07 9.42 59.08 9.42 59.08 0 44.77 0 44.77 9.42 39.62 9.42 39.62 0 25.31 0 25.31 9.42 14.32 9.42 14.32 4.2 0 4.2 0 9.42 0 17.65 14.32 17.65 25.31 17.65 39.62 17.65 44.77 17.65 59.08 17.65"/>
      <g>
        <path class="cls-2" d="M24.19,56.77c7.43,0,10.12,3.38,10.12,9.68v2.6c0,4.94-1.49,7.99-6.51,8.97,5.38.97,7.43,4.61,7.43,9.75v3.96c0,6.56-3.25,10.53-10.82,10.53h-10.61v-45.48h10.4ZM22.56,76.84c5.8,0,8.49-1.43,8.49-7.21v-2.92c0-4.74-1.63-7.21-6.93-7.21h-7.07v17.35h5.52ZM24.4,99.52c5.45,0,7.57-2.79,7.57-7.86v-4.09c0-5.91-2.9-7.99-8.77-7.99h-6.15v19.95h7.36Z"/>
        <path class="cls-2" d="M43.79,56.77v45.48h-3.25v-45.48h3.25Z"/>
        <path class="cls-2" d="M70.6,67.88v3.38h-3.11v-3.57c0-4.87-2.05-8.58-7.5-8.58s-7.5,3.7-7.5,8.58v23.65c0,4.87,2.05,8.51,7.5,8.51s7.5-3.64,7.5-8.51v-9.81h-6.58v-2.73h9.69v12.34c0,6.56-3.11,11.5-10.68,11.5s-10.68-4.94-10.68-11.5v-23.26c0-6.56,3.11-11.5,10.68-11.5s10.68,4.94,10.68,11.5Z"/>
      </g>
    </g>
  </g>
</svg>